<?xml version="1.0" encoding="UTF-8" standalone="no"?>
<!-- Created with Inkscape (http://www.inkscape.org/) -->

<svg
   width="7.6487408mm"
   height="7.679996mm"
   viewBox="0 0 7.6487408 7.679996"
   version="1.1"
   id="svg1"
   xmlns="http://www.w3.org/2000/svg"
   xmlns:svg="http://www.w3.org/2000/svg">
  <defs
     id="defs1">
    <clipPath
       clipPathUnits="userSpaceOnUse"
       id="clipPath165">
      <path
         d="M 0,64 H 1096.805 V 0 H 0 Z"
         transform="translate(-1056.3104,-40.525901)"
         id="path165" />
    </clipPath>
  </defs>
  <g
     id="layer1"
     transform="translate(-105.30417,-118.00417)">
    <path
       id="path164"
       d="m 0,0 c -3.434,-0.282 -5.675,-3.835 -4.594,-7.09 1.269,-3.822 6.24,-4.927 9.023,-1.998 C 7.853,-5.484 4.985,0.41 0,0 m 12.339,-14.388 c 0.636,-0.661 1.274,-1.323 1.898,-1.996 0.677,-1.093 -1.083,-1.947 -1.631,-2.684 -0.425,-0.332 -0.919,-0.323 -1.326,0.033 l -5.219,5.392 c -0.202,0.251 -0.486,0.585 -0.393,0.935 0.025,0.092 0.127,0.174 0.147,0.261 0.082,0.36 -0.182,0.714 -0.417,0.956 -3,-2.4 -7.446,-2.238 -10.238,0.414 -4.609,4.377 -2.38,12.205 3.853,13.39 6.651,1.265 11.68,-5.869 8.21,-11.712 -0.069,-0.115 -0.461,-0.638 -0.445,-0.701 0.036,-0.141 0.559,-0.454 0.709,-0.485 0.352,-0.074 0.385,0.167 0.663,0.156 0.439,-0.018 0.762,-0.46 1.038,-0.734 1.067,-1.055 2.11,-2.144 3.151,-3.225"
       style="fill:#575756;fill-opacity:1;fill-rule:nonzero;stroke:none"
       transform="matrix(0.35277776,0,0,-0.35277776,107.87652,118.87212)"
       clip-path="url(#clipPath165)" />
  </g>
</svg>
