<?xml version="1.0" encoding="UTF-8" standalone="no"?>
<!-- Created with Inkscape (http://www.inkscape.org/) -->

<svg
   width="4.5092053mm"
   height="4.491919mm"
   viewBox="0 0 4.5092053 4.491919"
   version="1.1"
   id="svg1"
   xmlns="http://www.w3.org/2000/svg"
   xmlns:svg="http://www.w3.org/2000/svg">
  <defs
     id="defs1">
    <clipPath
       clipPathUnits="userSpaceOnUse"
       id="clipPath2655">
      <path
         d="m 3.399,981.519 h 12.838 v 12.838 H 3.399 Z"
         transform="translate(-14.5752,-994.33232)"
         id="path2655" />
    </clipPath>
  </defs>
  <g
     id="layer1"
     transform="translate(-102.92291,-146.31458)">
    <g
       id="g2979"
       transform="matrix(0.26458333,0,0,0.26458333,101.72375,120.85542)">
      <path
         id="path2654"
         d="m 0,0 h -9.571 c -0.881,0 -1.605,-0.723 -1.605,-1.599 v -9.527 c 0,-0.876 0.724,-1.607 1.605,-1.607 h 4.761 v 4.394 h -1.572 v 1.948 h 1.572 v 1.617 c 0,1.316 1.096,2.352 2.416,2.352 h 1.629 v -1.972 h -0.83 c -0.44,0 -0.793,0.058 -0.793,-0.38 v -1.617 h 1.99 l -0.798,-1.948 h -1.192 v -4.394 H 0 c 0.88,0 1.606,0.731 1.606,1.607 v 9.527 C 1.606,-0.723 0.88,0 0,0"
         style="fill:#ffffff;fill-opacity:1;fill-rule:nonzero;stroke:none"
         transform="matrix(1.3333333,0,0,-1.3333333,19.4336,96.2236)"
         clip-path="url(#clipPath2655)" />
    </g>
  </g>
</svg>
