<?xml version="1.0" encoding="UTF-8" standalone="no"?>
<!-- Created with Inkscape (http://www.inkscape.org/) -->

<svg
   width="5.0626693mm"
   height="5.0833335mm"
   viewBox="0 0 5.0626693 5.0833335"
   version="1.1"
   id="svg1"
   xmlns="http://www.w3.org/2000/svg"
   xmlns:svg="http://www.w3.org/2000/svg">
  <defs
     id="defs1">
    <clipPath
       clipPathUnits="userSpaceOnUse"
       id="clipPath2683">
      <path
         d="M 0,1066.501 H 612 V 0 H 0 Z"
         transform="translate(-587.63581,-1048.1814)"
         id="path2683" />
    </clipPath>
  </defs>
  <g
     id="layer1"
     transform="translate(-102.65832,-146.05)">
    <g
       id="g2977"
       transform="matrix(0.26458333,0,0,0.26458333,-102.94374,140.16216)">
      <path
         id="path2682"
         d="M 0,0 C -2.273,-0.187 -3.757,-2.538 -3.041,-4.693 -2.201,-7.222 1.09,-7.954 2.931,-6.015 5.197,-3.629 3.3,0.271 0,0 m 8.167,-9.523 c 0.421,-0.438 0.844,-0.875 1.256,-1.321 0.448,-0.723 -0.717,-1.289 -1.079,-1.777 -0.281,-0.22 -0.609,-0.213 -0.878,0.022 L 4.012,-9.03 c -0.134,0.166 -0.323,0.387 -0.26,0.619 0.016,0.061 0.084,0.115 0.097,0.173 0.054,0.238 -0.12,0.472 -0.277,0.633 -1.985,-1.589 -4.928,-1.482 -6.776,0.273 -3.051,2.897 -1.575,8.079 2.551,8.863 4.402,0.838 7.73,-3.885 5.433,-7.752 -0.045,-0.076 -0.304,-0.423 -0.294,-0.464 0.024,-0.094 0.369,-0.3 0.469,-0.321 0.233,-0.049 0.255,0.11 0.44,0.103 0.29,-0.012 0.503,-0.305 0.686,-0.485 0.706,-0.699 1.397,-1.42 2.086,-2.135"
         style="fill:#ffffff;fill-opacity:1;fill-rule:nonzero;stroke:none"
         transform="matrix(1.3333333,0,0,-1.3333333,783.5144,24.4248)"
         clip-path="url(#clipPath2683)" />
    </g>
  </g>
</svg>
