<?xml version="1.0" encoding="UTF-8" standalone="no"?>
<!-- Created with Inkscape (http://www.inkscape.org/) -->

<svg
   width="14.817904mm"
   height="9.0038395mm"
   viewBox="0 0 14.817904 9.0038395"
   version="1.1"
   id="svg1"
   xmlns="http://www.w3.org/2000/svg"
   xmlns:svg="http://www.w3.org/2000/svg">
  <defs
     id="defs1">
    <clipPath
       clipPathUnits="userSpaceOnUse"
       id="clipPath2688">
      <path
         d="M 0,1066.501 H 612 V 0 H 0 Z"
         transform="translate(-477.49221,-1037.2649)"
         id="path2688" />
    </clipPath>
  </defs>
  <g
     id="layer1"
     transform="translate(-97.631251,-143.93333)">
    <g
       id="g2980"
       transform="matrix(0.26458333,0,0,0.26458333,-57.22001,140.76348)">
      <path
         id="path2687"
         d="m 0,0 h -24.402 c -2.313,-4.697 -7.186,-5.273 -11.152,-5.273 3.282,1.724 4.743,3.788 5.394,5.273 h -4.925 c -2.164,0 -3.796,1.965 -3.399,4.093 l 2.078,11.131 c 0.289,1.547 1.586,2.704 3.155,2.815 l 31.147,2.202 C -0.29,20.369 1.313,19.07 1.564,17.269 L 3.426,3.936 C 3.716,1.856 2.101,0 0,0"
         style="fill:#ffffff;fill-opacity:1;fill-rule:nonzero;stroke:none"
         transform="matrix(1.3333333,0,0,-1.3333333,636.65627,38.980133)"
         clip-path="url(#clipPath2688)" />
      <path
         id="path2689"
         d="M 1.5815375,-4.765625e-4 H 0.49169375 V -5.6371953 H 1.5815375 Z m 4.9306641,0 H 5.4223578 L 3.6293891,-3.5981328 3.6059516,-3.5864141 V -4.765625e-4 H 2.5161078 V -5.6371953 h 1.0898438 l 1.7929687,3.5976562 h 0.023437 V -5.6371953 H 6.5122016 Z M 10.253413,-2.3559453 H 8.4604438 V -4.765625e-4 H 7.3706 V -5.6371953 h 3.222656 v 0.8554687 H 8.4604438 v 1.5703125 h 1.7929692 z m 4.954101,0.328125 c 0,0.665039 -0.1875,1.18359374 -0.5625,1.55859374 -0.375,0.36914062 -0.873047,0.55078125 -1.488281,0.55078125 -0.626953,0 -1.125,-0.18164063 -1.5,-0.55078125 -0.369141,-0.375 -0.550781,-0.89355474 -0.550781,-1.55859374 v -1.5703125 c 0,-0.65625 0.18164,-1.171875 0.550781,-1.546875 0.375,-0.3808594 0.870117,-0.5742188 1.488281,-0.5742188 0.624024,0 1.125,0.1933594 1.5,0.5742188 0.375,0.375 0.5625,0.890625 0.5625,1.546875 z M 14.11767,-3.6098516 c 0,-0.4042968 -0.08203,-0.7148437 -0.246093,-0.9257812 -0.164063,-0.2109375 -0.407227,-0.3164063 -0.726563,-0.3164063 -0.313476,0 -0.550781,0.1054688 -0.714844,0.3164063 -0.158203,0.2050781 -0.234375,0.5126953 -0.234375,0.9257812 v 1.5820313 c 0,0.421875 0.07617,0.7382812 0.234375,0.9492187 0.164063,0.20507816 0.404297,0.30468754 0.726563,0.30468754 0.310547,0 0.550781,-0.0996094 0.714844,-0.30468754 0.164062,-0.2109375 0.246093,-0.5273437 0.246093,-0.9492187 z m 2.944336,1.3476563 V -4.765625e-4 H 15.972163 V -5.6254766 h 1.6875 c 0.5625,0 1.001953,0.1464844 1.324218,0.4335938 0.319336,0.290039 0.480469,0.6972656 0.480469,1.21875 0,0.290039 -0.07031,0.5449219 -0.210937,0.7617187 -0.134766,0.2109375 -0.328125,0.3808594 -0.585938,0.5039063 0.295898,0.102539 0.506836,0.2666015 0.632813,0.4921875 0.131835,0.2285156 0.199218,0.5097656 0.199218,0.84375 v 0.41015624 c 0,0.1640625 0.01465,0.33398437 0.04687,0.50390625 0.03809,0.17285156 0.105469,0.29882812 0.199219,0.375 v 0.0820312475 h -1.125 C 18.52685,-0.0854375 18.468256,-0.21727344 18.444819,-0.39891406 c -0.02344,-0.1875 -0.03516,-0.375 -0.03516,-0.5625 V -1.3598516 c 0,-0.28125 -0.05859,-0.4980468 -0.175782,-0.65625 -0.117187,-0.1640625 -0.290039,-0.2460937 -0.515625,-0.2460937 z m 0,-0.84375 h 0.585938 c 0.234375,0 0.413086,-0.070312 0.539062,-0.2109375 0.123047,-0.140625 0.1875,-0.3398438 0.1875,-0.5976563 0,-0.2636718 -0.06445,-0.4746093 -0.1875,-0.6328125 -0.117187,-0.1552734 -0.292968,-0.234375 -0.527343,-0.234375 h -0.597657 z m 5.730469,1.6523437 h 0.02344 L 23.8706,-5.6371953 h 1.417969 V -4.765625e-4 H 24.210444 V -3.5512578 h -0.02344 L 23.167475,-4.765625e-4 H 22.440913 L 21.4331,-3.5278203 21.40966,-3.5161013 V -4.765625e-4 H 20.319819 V -5.6371953 h 1.417969 z m 6.161133,-1.03125 h -1.722656 v 1.62890629 h 2.0625 V -4.765625e-4 H 26.141108 V -5.6371953 h 3.140625 v 0.8554687 h -2.050781 v 1.4414063 h 1.722656 z m 3.512695,1.0195313 c 0,-0.2167969 -0.05859,-0.3925781 -0.175781,-0.5273438 -0.111328,-0.1318359 -0.313477,-0.2607422 -0.609375,-0.3867187 -0.580078,-0.2021485 -1.016602,-0.4335938 -1.3125,-0.6914063 -0.290039,-0.2578125 -0.433594,-0.6152343 -0.433594,-1.078125 0,-0.4599609 0.164063,-0.8349609 0.492188,-1.125 0.333984,-0.2958984 0.761718,-0.4453125 1.277343,-0.4453125 0.544922,0 0.984375,0.1582032 1.3125,0.46875 0.333985,0.3134766 0.498047,0.7265625 0.492188,1.2421875 l -0.01172,0.023437 h -1.054687 c 0,-0.2871093 -0.06738,-0.5068359 -0.199219,-0.65625 -0.125977,-0.1552734 -0.310547,-0.234375 -0.550781,-0.234375 -0.210938,0 -0.375,0.070312 -0.492188,0.2109375 -0.117187,0.140625 -0.175781,0.3134766 -0.175781,0.515625 0,0.1962891 0.06445,0.3574219 0.199219,0.4804688 0.131836,0.1171875 0.357422,0.2519531 0.679687,0.3984375 0.539063,0.1816406 0.949219,0.4101562 1.230469,0.6914062 0.28125,0.2753907 0.421875,0.6445313 0.421875,1.1132813 0,0.47753905 -0.164063,0.85546874 -0.492188,1.13671874 -0.328125,0.27539062 -0.761718,0.41015625 -1.300781,0.41015625 -0.539062,0 -1.001953,-0.14648438 -1.382812,-0.4453125 -0.375,-0.29589844 -0.556641,-0.74999999 -0.539063,-1.35937499 l 0.01172,-0.023437 h 1.066406 c 0,0.3515625 0.07031,0.6064453 0.210938,0.76171874 0.140625,0.15820312 0.351562,0.234375 0.632812,0.234375 0.234375,0 0.410156,-0.0615234 0.527344,-0.1875 0.117187,-0.13183594 0.175781,-0.30761724 0.175781,-0.52734374 z m 0,0"
         style="fill:#67122c;fill-opacity:1;fill-rule:nonzero;stroke:none"
         aria-label="INFORMES"
         transform="matrix(1.3333333,0,0,1.3333333,590.92253,32.332667)" />
    </g>
  </g>
</svg>
